<svg xmlns="http://www.w3.org/2000/svg" width="10" height="10" viewBox="0 0 10 10">
  <g id="noun_Close_806723" transform="translate(0 0)">
    <g id="Group_208" data-name="Group 208" transform="translate(0 0)">
      <path id="Path_105" data-name="Path 105" d="M.213,1.239a.725.725,0,0,1,0-1.026h0a.725.725,0,0,1,1.026,0h0L9.789,8.762a.726.726,0,0,1,0,1.026h0a.726.726,0,0,1-1.026,0h0L.213,1.239Z" transform="translate(-0.001 0)" fill="#434b56"/>
    </g>
    <g id="Group_209" data-name="Group 209" transform="translate(0 0)">
      <path id="Path_106" data-name="Path 106" d="M1.239,9.788a.726.726,0,0,1-1.026,0h0a.725.725,0,0,1,0-1.026h0L8.762.212a.726.726,0,0,1,1.026,0h0a.726.726,0,0,1,0,1.026h0L1.239,9.788Z" transform="translate(0 0)" fill="#434b56"/>
    </g>
  </g>
</svg>
