<svg id="noun_flash_2291942" xmlns="http://www.w3.org/2000/svg" width="31" height="31" viewBox="0 0 31 31">
  <g id="Group_211" data-name="Group 211">
    <path id="Path_107" data-name="Path 107" d="M111.081,87.409l1.722.1-1.52,5.775a.56.56,0,0,0,.912.608l6.686-7.7a.57.57,0,0,0-.507-.912h-2.026l2.837-5.471a.541.541,0,0,0-.507-.81h-5.065c-.3,0-.507.1-.507.405L110.676,86.7A.512.512,0,0,0,111.081,87.409Z" transform="translate(-99.431 -70.997)" fill="#fff" fill-rule="evenodd"/>
    <path id="Path_108" data-name="Path 108" d="M15.5,0A15.5,15.5,0,1,1,0,15.5,15.5,15.5,0,0,1,15.5,0Zm0,2.229A13.271,13.271,0,1,0,28.771,15.5,13.317,13.317,0,0,0,15.5,2.229Z" fill="#fff"/>
  </g>
</svg>
