<svg xmlns="http://www.w3.org/2000/svg" width="31.8" height="27" viewBox="0 0 31.8 27">
  <g id="noun_Flip_Camera_773659" data-name="noun_Flip Camera_773659" transform="translate(-15.5 -16.5)">
    <path id="Path_109" data-name="Path 109" d="M31.5,37.3a7,7,0,1,1,7-7A6.957,6.957,0,0,1,31.5,37.3Zm0-11.2a4.15,4.15,0,1,0,4.2,4.2A4.363,4.363,0,0,0,31.5,26.1Z" fill="#fff"/>
    <path id="Path_110" data-name="Path 110" d="M33.7,18.7a1.367,1.367,0,0,1-1.4,1.4H23.8c-4.3,0-5.6,1.4-5.6,5.6v5.9c0,4.3,1.2,5.4,4.5,5.6l-1.1-1.4A1.421,1.421,0,0,1,23.8,34l3,3.7.1.1a.764.764,0,0,1,.2.5V39a1.332,1.332,0,0,1-.3.5h0l-3,3.5a1.606,1.606,0,0,1-1.1.5,1.4,1.4,0,0,1-.9-.3,1.309,1.309,0,0,1-.2-1.9l.1-.1,1-1.2c-4.4-.2-7.2-2-7.2-8.4V25.7c0-5.8,2.6-8.4,8.4-8.4h8.5A1.5,1.5,0,0,1,33.7,18.7Z" fill="#fff"/>
    <path id="Path_111" data-name="Path 111" d="M29,41.3a1.367,1.367,0,0,1,1.4-1.4H39c4.3,0,5.6-1.4,5.6-5.6V28.4c0-4.3-1.2-5.4-4.5-5.6l1.1,1.4A1.421,1.421,0,1,1,39,26l-3-3.7-.1-.1a.764.764,0,0,1-.2-.5V21a1.332,1.332,0,0,1,.3-.5h0L39,17a1.606,1.606,0,0,1,1.1-.5,1.4,1.4,0,0,1,.9.3,1.309,1.309,0,0,1,.2,1.9l-.1.1-1,1.1c4.4.2,7.2,2,7.2,8.4v5.9c0,5.8-2.6,8.4-8.5,8.4H30.3A1.206,1.206,0,0,1,29,41.3Z" fill="#fff"/>
  </g>
</svg>
