<svg xmlns="http://www.w3.org/2000/svg" width="36.208" height="29.143" viewBox="0 0 36.208 29.143">
  <path id="Path_3" data-name="Path 3" d="M27.1,969.362a1.549,1.549,0,0,0-.814.276L9.508,982.884a1.581,1.581,0,0,0-.29,1.918,1.372,1.372,0,0,0,1.918.166L27.1,972.37l15.965,12.6a1.356,1.356,0,0,0,1.918-.166,1.5,1.5,0,0,0-.29-1.918L27.915,969.638a1.349,1.349,0,0,0-.814-.276ZM16.5,982.291l-2.649,2.1V997.18a1.325,1.325,0,0,0,1.325,1.325h8.39a1.325,1.325,0,0,0,1.325-1.325v-5.3a2.208,2.208,0,0,1,4.416,0v5.3a1.325,1.325,0,0,0,1.325,1.325h8.39a1.325,1.325,0,0,0,1.325-1.325V984.388l-2.649-2.1v13.564h-5.74v-3.974a4.857,4.857,0,1,0-9.714,0v3.974H16.5Z" transform="translate(-9 -969.362)" fill="#434b56"/>
</svg>
