<svg xmlns="http://www.w3.org/2000/svg" width="33.483" height="29.605" viewBox="0 0 33.483 29.605">
  <g id="noun_message_230466" transform="translate(-9.8 -14.5)">
    <path id="Path_54" data-name="Path 54" d="M14.929,38.935h1.71v3.878a1.37,1.37,0,0,0,.709,1.168,1.332,1.332,0,0,0,.584.125,1.249,1.249,0,0,0,.751-.25l6.713-4.92H38.154a5.125,5.125,0,0,0,5.129-5.129V19.629A5.125,5.125,0,0,0,38.154,14.5H14.929A5.125,5.125,0,0,0,9.8,19.629V33.806A5.179,5.179,0,0,0,14.929,38.935Zm-2.5-19.306a2.554,2.554,0,0,1,2.544-2.544H38.2a2.554,2.554,0,0,1,2.544,2.544V33.806A2.554,2.554,0,0,1,38.2,36.349H25.02a1.164,1.164,0,0,0-.751.25l-5,3.669V37.642a1.3,1.3,0,0,0-1.293-1.293h-3a2.554,2.554,0,0,1-2.544-2.544ZM25.02,27.218a1.539,1.539,0,0,1,1.543-1.543,1.514,1.514,0,0,1,1.543,1.543,1.539,1.539,0,0,1-1.543,1.543A1.567,1.567,0,0,1,25.02,27.218Zm5.3,0a1.539,1.539,0,0,1,1.543-1.543,1.543,1.543,0,1,1,0,3.086A1.539,1.539,0,0,1,30.315,27.218Zm-10.549,0a1.543,1.543,0,1,1,3.086,0,1.514,1.514,0,0,1-1.543,1.543A1.539,1.539,0,0,1,19.766,27.218Z" fill="#434b56"/>
  </g>
</svg>
