<svg xmlns="http://www.w3.org/2000/svg" width="20.816" height="29.143" viewBox="0 0 20.816 29.143">
  <path id="Path_7" data-name="Path 7" d="M13.146,4.624a3.122,3.122,0,1,0-5.477,0A8.33,8.33,0,0,0,2.082,12.49v6.245c0,.059,0,.117.007.175a3.123,3.123,0,0,0,1.034,6.07H6.245a4.163,4.163,0,1,0,8.327,0h3.122a3.123,3.123,0,0,0,1.034-6.07c0-.058.007-.116.007-.175V12.49A8.33,8.33,0,0,0,13.146,4.624Zm-1.7-1.5a1.041,1.041,0,1,0-1.041,1.041A1.041,1.041,0,0,0,11.449,3.122Zm5.2,9.367a6.245,6.245,0,1,0-12.49,0v8.327H3.122a1.041,1.041,0,0,0,0,2.082H17.694a1.041,1.041,0,1,0,0-2.082H16.653ZM12.49,24.98H8.327a2.082,2.082,0,0,0,4.163,0Z" transform="translate(0 0)" fill="#434b56" fill-rule="evenodd"/>
</svg>
