<svg xmlns="http://www.w3.org/2000/svg" width="29.078" height="29.143" viewBox="0 0 29.078 29.143">
  <path id="Path_93" data-name="Path 93" d="M15.008,29.6a14.566,14.566,0,0,1-7.127-1.864,1.36,1.36,0,1,1,1.337-2.368,12.028,12.028,0,0,0,8.112,1.29,1.36,1.36,0,0,1,.528,2.661,14.4,14.4,0,0,1-2.849.281M5.783,25.852a1.294,1.294,0,0,1-.938-.387,14.536,14.536,0,0,1-3.986-7A1.36,1.36,0,1,1,3.5,17.822a11.711,11.711,0,0,0,3.247,5.7,1.36,1.36,0,0,1-.961,2.333M1.832,15.594H1.75A1.36,1.36,0,0,1,.46,14.152,14.677,14.677,0,0,1,1.7,9.1a1.362,1.362,0,1,1,2.485,1.114,11.723,11.723,0,0,0-1.008,4.1,1.351,1.351,0,0,1-1.348,1.278M5.947,6.779A1.321,1.321,0,0,1,5,6.38a1.407,1.407,0,0,1-.41-.961A1.38,1.38,0,0,1,5,4.457a1.407,1.407,0,0,1,1.923,0,1.366,1.366,0,0,1,.387.961,1.408,1.408,0,0,1-.387.961.973.973,0,0,1-.211.164,1.008,1.008,0,0,1-.234.129l-.258.082a1.1,1.1,0,0,1-.27.023m15.345,21.23a1.36,1.36,0,0,1-.645-2.556A11.84,11.84,0,0,0,15.02,3.18a1.36,1.36,0,0,1,0-2.72,14.583,14.583,0,0,1,6.916,27.385,1.258,1.258,0,0,1-.645.164" transform="translate(-0.458 -0.46)" fill="#434b56"/>
</svg>
