<svg xmlns="http://www.w3.org/2000/svg" xmlns:xlink="http://www.w3.org/1999/xlink" width="81" height="81" viewBox="0 0 81 81">
  <defs>
    <linearGradient id="linear-gradient" x1="0.5" x2="0.5" y2="1" gradientUnits="objectBoundingBox">
      <stop offset="0" stop-color="#2676e1"/>
      <stop offset="1" stop-color="#00b5aa"/>
    </linearGradient>
    <filter id="Path_94" x="0" y="0" width="81" height="81" filterUnits="userSpaceOnUse">
      <feOffset dy="3" input="SourceAlpha"/>
      <feGaussianBlur stdDeviation="3" result="blur"/>
      <feFlood flood-opacity="0.259"/>
      <feComposite operator="in" in2="blur"/>
      <feComposite in="SourceGraphic"/>
    </filter>
  </defs>
  <g transform="matrix(1, 0, 0, 1, 0, 0)" filter="url(#Path_94)">
    <g id="Path_94-2" data-name="Path 94" transform="translate(9 6)" fill="url(#linear-gradient)">
      <path d="M 31.5 61.5 C 27.44935989379883 61.5 23.52069091796875 60.70700836181641 19.82311058044434 59.14307022094727 C 16.25090980529785 57.63214874267578 13.04242992401123 55.46884155273438 10.28680038452148 52.71319961547852 C 7.5311598777771 49.95756912231445 5.367849826812744 46.74908828735352 3.856930017471313 43.1768913269043 C 2.29298996925354 39.47930908203125 1.5 35.55064010620117 1.5 31.5 C 1.5 27.44935989379883 2.29298996925354 23.52069091796875 3.856930017471313 19.82311058044434 C 5.367849826812744 16.25090980529785 7.5311598777771 13.04242992401123 10.28680038452148 10.28680038452148 C 13.04242992401123 7.5311598777771 16.25090980529785 5.367849826812744 19.82311058044434 3.856930017471313 C 23.52069091796875 2.29298996925354 27.44935989379883 1.5 31.5 1.5 C 35.55064010620117 1.5 39.47930908203125 2.29298996925354 43.1768913269043 3.856930017471313 C 46.74908828735352 5.367849826812744 49.95756912231445 7.5311598777771 52.71319961547852 10.28680038452148 C 55.46884155273438 13.04242992401123 57.63214874267578 16.25090980529785 59.14307022094727 19.82311058044434 C 60.70700836181641 23.52069091796875 61.5 27.44935989379883 61.5 31.5 C 61.5 35.55064010620117 60.70700836181641 39.47930908203125 59.14307022094727 43.1768913269043 C 57.63214874267578 46.74908828735352 55.46884155273438 49.95756912231445 52.71319961547852 52.71319961547852 C 49.95756912231445 55.46884155273438 46.74908828735352 57.63214874267578 43.1768913269043 59.14307022094727 C 39.47930908203125 60.70700836181641 35.55064010620117 61.5 31.5 61.5 Z" stroke="none"/>
      <path d="M 31.5 3 C 27.65119934082031 3 23.91912078857422 3.753120422363281 20.40743255615234 5.238445281982422 C 17.01403427124023 6.673732757568359 13.96582412719727 8.729099273681641 11.34745407104492 11.34745407104492 C 8.729099273681641 13.96582412719727 6.673732757568359 17.01403427124023 5.238445281982422 20.40743255615234 C 3.753120422363281 23.91912078857422 3 27.65119934082031 3 31.5 C 3 35.34880065917969 3.753120422363281 39.08087921142578 5.238445281982422 42.59256744384766 C 6.673732757568359 45.98596572875977 8.729099273681641 49.0341796875 11.34745407104492 51.65254211425781 C 13.96582412719727 54.27090072631836 17.01403427124023 56.32626724243164 20.40743255615234 57.76155471801758 C 23.91912078857422 59.24687957763672 27.65119934082031 60 31.5 60 C 35.34880065917969 60 39.08087921142578 59.24687957763672 42.59256744384766 57.76155471801758 C 45.98596572875977 56.32626724243164 49.0341796875 54.27090072631836 51.65254211425781 51.65254211425781 C 54.27090072631836 49.0341796875 56.32626724243164 45.98596572875977 57.76155471801758 42.59256744384766 C 59.24687957763672 39.08087921142578 60 35.34880065917969 60 31.5 C 60 27.65119934082031 59.24687957763672 23.91912078857422 57.76155471801758 20.40743255615234 C 56.32626724243164 17.01403427124023 54.27090072631836 13.96582412719727 51.65254211425781 11.34745407104492 C 49.0341796875 8.729099273681641 45.98596572875977 6.673732757568359 42.59256744384766 5.238445281982422 C 39.08087921142578 3.753120422363281 35.34880065917969 3 31.5 3 M 31.5 0 C 48.89696502685547 0 63 14.10303497314453 63 31.5 C 63 48.89696502685547 48.89696502685547 63 31.5 63 C 14.10303497314453 63 0 48.89696502685547 0 31.5 C 0 14.10303497314453 14.10303497314453 0 31.5 0 Z" stroke="none" fill="#fff"/>
    </g>
  </g>
</svg>
