<svg xmlns="http://www.w3.org/2000/svg" width="30" height="16.4" viewBox="0 0 30 16.4">
  <g id="noun_Video_966159" transform="translate(-10.5 -27.5)">
    <g id="Group_297" data-name="Group 297" transform="translate(10.5 27.5)">
      <path id="Path_130" data-name="Path 130" d="M29.34,43.9H12.86a2.364,2.364,0,0,1-2.36-2.36V29.86a2.364,2.364,0,0,1,2.36-2.36H29.3a2.364,2.364,0,0,1,2.36,2.36V41.5A2.34,2.34,0,0,1,29.34,43.9Z" transform="translate(-10.5 -27.5)" fill="#434b56"/>
      <path id="Path_131" data-name="Path 131" d="M67.5,33.46v7.12l6.6,3.72a.4.4,0,0,0,.6-.36V30.1a.411.411,0,0,0-.6-.36Z" transform="translate(-44.7 -28.82)" fill="#434b56"/>
    </g>
  </g>
</svg>
