<svg xmlns="http://www.w3.org/2000/svg" width="19.096" height="12.114" viewBox="0 0 19.096 12.114">
  <g id="noun_View_2309904" transform="translate(-0.497 -1.858)">
    <g id="Group_216" data-name="Group 216" transform="translate(0.497 1.858)">
      <path id="Path_114" data-name="Path 114" d="M10.045,290.391c-6.457,0-9.394,5.765-9.394,5.765l-.154.306.155.3S3.59,302.5,10.045,302.5s9.394-5.765,9.394-5.765l.154-.306-.155-.3s-2.938-5.739-9.393-5.739Zm0,1.346a9.3,9.3,0,0,1,8,4.7,9.3,9.3,0,0,1-8,4.724,9.3,9.3,0,0,1-8-4.7A9.3,9.3,0,0,1,10.045,291.737Zm.045,1.333a3.365,3.365,0,1,0,3.365,3.365A3.375,3.375,0,0,0,10.09,293.07Zm0,1.346a2.019,2.019,0,1,1-2.019,2.019A2.009,2.009,0,0,1,10.09,294.416Z" transform="translate(-0.497 -290.391)" fill="#4c4c4c"/>
    </g>
  </g>
</svg>
