<svg id="dribbble-ball-icon" xmlns="http://www.w3.org/2000/svg" width="32" height="32" viewBox="0 0 32 32">
  <rect id="Rectangle_46" data-name="Rectangle 46" width="32" height="32" fill="rgba(0,0,0,0)"/>
  <circle id="Ellipse_150" data-name="Ellipse 150" cx="15.36" cy="15.36" r="15.36" transform="translate(0.64 0.64)" fill="#ea4c89"/>
  <path id="Path_115" data-name="Path 115" d="M16,0A16,16,0,1,0,32,16,16,16,0,0,0,16,0ZM26.568,7.375a13.6,13.6,0,0,1,3.089,8.5,32.269,32.269,0,0,0-9.51-.434c-.1-.226-.191-.469-.3-.711-.278-.659-.59-1.336-.9-1.978A18.29,18.29,0,0,0,26.568,7.375ZM16,2.36A13.636,13.636,0,0,1,25.059,5.8c-.243.347-2.308,3.106-7.167,4.928a73.78,73.78,0,0,0-5.1-8A13.9,13.9,0,0,1,16,2.36ZM10.187,3.644a86.239,86.239,0,0,1,5.067,7.9A51.252,51.252,0,0,1,2.62,13.206,13.73,13.73,0,0,1,10.187,3.644ZM2.325,16.017V15.6a49.934,49.934,0,0,0,14.039-1.944c.4.764.764,1.544,1.111,2.325-.174.052-.364.1-.538.156C9.892,18.412,6.143,24.625,5.831,25.145A13.635,13.635,0,0,1,2.325,16.017ZM16,29.675a13.571,13.571,0,0,1-8.382-2.881c.243-.5,3.02-5.848,10.725-8.538.035-.017.052-.017.087-.035a56.494,56.494,0,0,1,2.915,10.36A13.441,13.441,0,0,1,16,29.675Zm7.618-2.343A58.8,58.8,0,0,0,20.963,17.6a19.958,19.958,0,0,1,8.5.59A13.549,13.549,0,0,1,23.618,27.332Z" fill="#c32361" fill-rule="evenodd"/>
</svg>
