<svg xmlns="http://www.w3.org/2000/svg" width="17" height="17" viewBox="0 0 17 17">
  <g id="noun_Close_806723" transform="translate(0 0)">
    <g id="Group_208" data-name="Group 208" transform="translate(0 0)">
      <path id="Path_105" data-name="Path 105" d="M.362,2.106a1.233,1.233,0,0,1,0-1.744h0a1.233,1.233,0,0,1,1.744,0h0L16.639,14.895a1.233,1.233,0,0,1,0,1.744h0a1.234,1.234,0,0,1-1.744,0h0L.362,2.106Z" transform="translate(-0.001 0)" fill="#434b56"/>
    </g>
    <g id="Group_209" data-name="Group 209" transform="translate(0 0)">
      <path id="Path_106" data-name="Path 106" d="M2.106,16.639a1.234,1.234,0,0,1-1.744,0h0a1.233,1.233,0,0,1,0-1.744h0L14.894.361a1.234,1.234,0,0,1,1.744,0h0a1.234,1.234,0,0,1,0,1.745h0L2.106,16.639Z" transform="translate(0 0)" fill="#434b56"/>
    </g>
  </g>
</svg>
