<svg xmlns="http://www.w3.org/2000/svg" width="29.143" height="29.143" viewBox="0 0 29.143 29.143">
  <g id="noun_emoji_1636140" transform="translate(-5 -5)" opacity="0.75">
    <g id="Group_182" data-name="Group 182" transform="translate(5 5)">
      <path id="Path_97" data-name="Path 97" d="M19.572,5A14.572,14.572,0,1,0,34.143,19.572,14.588,14.588,0,0,0,19.572,5Zm0,27.524A12.952,12.952,0,1,1,32.524,19.572,12.967,12.967,0,0,1,19.572,32.524Z" transform="translate(-5 -5)" fill="#fff"/>
      <circle id="Ellipse_131" data-name="Ellipse 131" cx="1.84" cy="1.84" r="1.84" transform="translate(18.482 10.011)" fill="#fff"/>
      <circle id="Ellipse_132" data-name="Ellipse 132" cx="1.84" cy="1.84" r="1.84" transform="translate(6.981 10.011)" fill="#fff"/>
      <path id="Path_98" data-name="Path 98" d="M41.513,58.577a7.928,7.928,0,0,1-10.424,0,.81.81,0,1,0-1.077,1.209,9.567,9.567,0,0,0,12.578,0,.81.81,0,0,0-1.077-1.209Z" transform="translate(-21.73 -41.089)" fill="#fff"/>
    </g>
  </g>
</svg>
